<svg version="1.1" xmlns="http://www.w3.org/2000/svg" viewBox="0 0 782.3 121.4">
	<style type="text/css">
		.logo-color-1{fill:#56C8EA;}
		.logo-color-2{fill:#09446A;}
	</style>
	<g>
		<path class="logo-color-1" d="M171.4,85.4v10h-7.8V21.8h7.8v31.9c4.2-6.2,10.4-11.6,20-11.6c12.5,0,24.9,9.9,24.9,27v0.2
			c0,17-12.3,27.1-24.9,27.1C181.6,96.5,175.4,91.2,171.4,85.4z M208.2,69.5v-0.2c0-12.3-8.5-20.1-18.3-20.1
			c-9.7,0-18.8,8.2-18.8,20.1v0.2c0,12.1,9.2,20.2,18.8,20.2C200,89.5,208.2,82.1,208.2,69.5z"/>
		<path class="logo-color-1" d="M236.2,21.8h7.8v73.5h-7.8V21.8z"/>
		<path class="logo-color-1" d="M266.3,75.6V43.3h7.8v30.4c0,9.7,5.2,15.7,14.4,15.7c8.9,0,15.6-6.5,15.6-16.3V43.3h7.7v52.1h-7.7v-9.1
			c-3.5,5.6-8.9,10.2-17.8,10.2C273.6,96.5,266.3,88,266.3,75.6z"/>
		<path class="logo-color-1" d="M357.2,89.8c7.2,0,12.2-2.9,16.4-7.4l4.8,4.3c-5.2,5.8-11.6,9.8-21.5,9.8c-14.3,0-26-11-26-27.2
			c0-15.1,10.6-27.2,25-27.2c15.4,0,24.3,12.3,24.3,27.6c0,0.7,0,1.5-0.1,2.7h-41.3C339.9,83.5,348,89.8,357.2,89.8z M372.4,66.3
			c-0.9-9.5-6.3-17.5-16.6-17.5c-9,0-15.8,7.5-16.9,17.5H372.4z"/>
		<path class="logo-color-2" d="M398.9,21.8h7.8v30.5c3.4-5.6,8.9-10.2,17.8-10.2c12.6,0,20,8.5,20,20.9v32.3h-7.8V64.9
			c0-9.7-5.2-15.7-14.4-15.7c-9,0-15.6,6.6-15.6,16.3v29.8h-7.8V21.8z"/>
		<path class="logo-color-2" d="M462.1,80.3v-0.2c0-11.2,9.1-17,22.3-17c6.7,0,11.3,0.9,15.9,2.2v-1.6c0-9.3-5.6-14.1-15.4-14.1
			c-6.1,0-11,1.5-15.8,3.7l-2.3-6.3c5.7-2.6,11.3-4.4,18.9-4.4c7.4,0,13.1,2,16.8,5.7c3.6,3.6,5.4,8.7,5.4,15.3v31.8h-7.7v-7.8
			c-3.6,4.6-9.6,8.9-18.7,8.9C471.7,96.5,462.1,90.9,462.1,80.3z M500.4,76.2v-4.8c-3.8-1.1-8.9-2.2-15.2-2.2
			c-9.7,0-15.2,4.2-15.2,10.5v0.2c0,6.5,6,10.4,13.1,10.4C492.6,90.2,500.4,84.5,500.4,76.2z"/>
		<path class="logo-color-2" d="M529.4,43.3h7.8v13.6c3.8-8.7,11.4-14.9,21.3-14.5v8.4h-0.6c-11.4,0-20.7,8.2-20.7,23.9v20.8h-7.8V43.3z"/>
		<path class="logo-color-2" d="M570.1,43.3h8.6l17.5,43.2l17.6-43.2h8.4l-22.7,52.5h-6.9L570.1,43.3z"/>
		<path class="logo-color-2" d="M659.4,89.8c7.2,0,12.2-2.9,16.4-7.4l4.8,4.3c-5.2,5.8-11.6,9.8-21.5,9.8c-14.3,0-26-11-26-27.2
			c0-15.1,10.6-27.2,25-27.2c15.4,0,24.3,12.3,24.3,27.6c0,0.7,0,1.5-0.1,2.7H641C642.1,83.5,650.2,89.8,659.4,89.8z M674.6,66.3
			c-0.9-9.5-6.3-17.5-16.6-17.5c-9,0-15.8,7.5-16.9,17.5H674.6z"/>
		<path class="logo-color-2" d="M696.7,88.7l3.9-5.5c5.6,4.2,11.9,6.7,18,6.7c6.2,0,10.8-3.2,10.8-8.3v-0.2c0-5.2-6.1-7.3-13-9.2
			c-8.2-2.3-17.2-5.1-17.2-14.7v-0.2c0-9,7.5-14.9,17.7-14.9c6.3,0,13.4,2.2,18.7,5.7l-3.5,5.8c-4.8-3.1-10.4-5-15.4-5
			c-6.1,0-10.1,3.2-10.1,7.6v0.2c0,4.9,6.4,6.9,13.4,9c8.1,2.4,16.7,5.5,16.7,14.9v0.2c0,9.9-8.2,15.6-18.5,15.6
			C710.9,96.4,702.6,93.5,696.7,88.7z"/>
		<path class="logo-color-2" d="M758,81.6V50.1h-7.3v-6.9h7.3V27.6h7.8v15.7h16.5v6.9h-16.5v30.4c0,6.3,3.5,8.7,8.8,8.7c2.6,0,4.8-0.5,7.6-1.8
			v6.7c-2.7,1.4-5.6,2.2-9.4,2.2C764.4,96.3,758,92.1,758,81.6z"/>
	</g>
	<g>
		<circle class="logo-color-1" cx="86.9" cy="38.3" r="8.4"/>
		<path class="logo-color-2" d="M60.7,0C27.2,0,0,27.2,0,60.7c0,33.5,27.2,60.7,60.7,60.7c33.5,0,60.7-27.2,60.7-60.7
			C121.4,27.2,94.1,0,60.7,0z M60.7,3.6c31.5,0,57,25.6,57,57c0,1-0.1,2-0.1,2.9L3.8,63.9c-0.1-1.1-0.2-2.2-0.2-3.3
			C3.6,29.2,29.2,3.6,60.7,3.6z"/>
	</g>
</svg>
