<svg version="1.1" xmlns="http://www.w3.org/2000/svg" viewBox="0 0 358.17 175.53">
	<style type="text/css">
		.colorOne{fill:#56C8EA;}
		.colorTwo{fill:#09446A;}
	</style>
	<g>
		<path class="colorOne" d="M4.49,169.06v5.77H0v-42.58h4.49v18.49c2.45-3.62,6.01-6.71,11.55-6.71c7.23,0,14.41,5.72,14.41,15.63v0.11
			c0,9.86-7.11,15.69-14.41,15.69C10.44,175.47,6.83,172.44,4.49,169.06z M25.84,159.84v-0.12c0-7.12-4.9-11.66-10.62-11.66
			c-5.6,0-10.91,4.72-10.91,11.61v0.11c0,7,5.31,11.67,10.91,11.67C21.06,171.45,25.84,167.13,25.84,159.84z"/>
		<path class="colorOne" d="M42.06,132.25h4.49v42.58h-4.49V132.25z"/>
		<path class="colorOne" d="M59.44,163.4v-18.73h4.49v17.62c0,5.6,3.03,9.1,8.34,9.1c5.13,0,9.04-3.79,9.04-9.45v-17.26h4.43v30.16h-4.43
			v-5.25c-2.04,3.26-5.13,5.89-10.32,5.89C63.7,175.47,59.44,170.57,59.44,163.4z"/>
		<path class="colorOne" d="M112.06,171.62c4.14,0,7.06-1.69,9.51-4.26l2.8,2.51c-3.04,3.38-6.71,5.66-12.43,5.66
			c-8.28,0-15.05-6.36-15.05-15.75c0-8.75,6.13-15.75,14.47-15.75c8.92,0,14.06,7.11,14.06,15.98c0,0.41,0,0.87-0.06,1.57h-23.91
			C102.08,167.95,106.75,171.62,112.06,171.62z M120.86,157.97c-0.52-5.48-3.67-10.15-9.62-10.15c-5.19,0-9.16,4.32-9.8,10.15H120.86
			z"/>
		<path class="colorTwo" d="M136.21,132.25h4.49v17.67c1.98-3.27,5.13-5.89,10.32-5.89c7.29,0,11.55,4.9,11.55,12.07v18.72h-4.49v-17.61
			c0-5.6-3.04-9.1-8.34-9.1c-5.19,0-9.04,3.79-9.04,9.45v17.26h-4.49V132.25z"/>
		<path class="colorTwo" d="M172.78,166.08v-0.12c0-6.47,5.25-9.86,12.89-9.86c3.85,0,6.53,0.52,9.22,1.28v-0.93
			c0-5.36-3.26-8.17-8.92-8.17c-3.56,0-6.36,0.87-9.16,2.16l-1.34-3.67c3.32-1.52,6.53-2.57,10.96-2.57c4.26,0,7.58,1.17,9.74,3.32
			c2.1,2.1,3.15,5.02,3.15,8.87v18.43h-4.43v-4.49c-2.1,2.68-5.54,5.13-10.85,5.13C178.38,175.47,172.78,172.26,172.78,166.08z
			 M194.95,163.75v-2.8c-2.22-0.64-5.13-1.28-8.81-1.28c-5.6,0-8.81,2.45-8.81,6.07v0.12c0,3.79,3.5,6.01,7.58,6.01
			C190.46,171.86,194.95,168.53,194.95,163.75z"/>
		<path class="colorTwo" d="M211.75,144.67h4.49v7.87c2.22-5.02,6.59-8.63,12.31-8.4v4.84h-0.35c-6.59,0-11.96,4.72-11.96,13.83v12.01
			h-4.49V144.67z"/>
		<path class="colorTwo" d="M235.32,144.67h4.96l10.15,25.02l10.21-25.02h4.84l-13.13,30.39h-3.97L235.32,144.67z"/>
		<path class="colorTwo" d="M287,171.62c4.14,0,7.06-1.69,9.51-4.26l2.8,2.51c-3.03,3.38-6.71,5.66-12.42,5.66
			c-8.28,0-15.05-6.36-15.05-15.75c0-8.75,6.12-15.75,14.46-15.75c8.93,0,14.06,7.11,14.06,15.98c0,0.41,0,0.87-0.06,1.57h-23.92
			C277.03,167.95,281.69,171.62,287,171.62z M295.81,157.97c-0.53-5.48-3.68-10.15-9.62-10.15c-5.19,0-9.16,4.32-9.8,10.15H295.81z"
			/>
		<path class="colorTwo" d="M308.65,170.98l2.28-3.21c3.27,2.45,6.88,3.85,10.44,3.85c3.62,0,6.24-1.87,6.24-4.78v-0.12
			c0-3.03-3.56-4.2-7.52-5.31c-4.72-1.34-9.98-2.98-9.98-8.52v-0.11c0-5.19,4.32-8.63,10.27-8.63c3.67,0,7.76,1.28,10.85,3.32
			l-2.04,3.38c-2.8-1.81-6.01-2.92-8.92-2.92c-3.56,0-5.83,1.87-5.83,4.37v0.12c0,2.86,3.73,3.97,7.76,5.19
			c4.67,1.4,9.68,3.21,9.68,8.64v0.11c0,5.72-4.72,9.04-10.73,9.04C316.81,175.41,312.03,173.72,308.65,170.98z"/>
		<path class="colorTwo" d="M344.11,166.84v-18.2h-4.2v-3.97h4.2v-9.1h4.49v9.1h9.57v3.97h-9.57v17.62c0,3.67,2.04,5.01,5.08,5.01
			c1.51,0,2.8-0.29,4.37-1.05v3.85c-1.57,0.82-3.26,1.28-5.43,1.28C347.79,175.36,344.11,172.96,344.11,166.84z"/>
	</g>
	<circle class="colorOne" cx="203.3" cy="36.12" r="7.96"/>
	<path class="colorTwo" d="M178.59,0c-31.52,0-57.17,25.65-57.17,57.16c0,31.52,25.65,57.17,57.17,57.17c31.52,0,57.16-25.65,57.16-57.17
		C235.76,25.65,210.11,0,178.59,0z M178.59,3.43c29.63,0,53.73,24.1,53.73,53.73c0,0.93-0.09,1.84-0.14,2.76l-107.18,0.31
		c-0.06-1.02-0.16-2.03-0.16-3.07C124.86,27.54,148.96,3.43,178.59,3.43z"/>
</svg>
