<svg version="1.1"
	 xmlns="http://www.w3.org/2000/svg" xmlns:xlink="http://www.w3.org/1999/xlink" xmlns:a="http://ns.adobe.com/AdobeSVGViewerExtensions/3.0/"
	 x="0px" y="0px" width="122.5px" height="122.4px" viewBox="0 0 122.5 122.4" style="enable-background:new 0 0 122.5 122.4;"
	 xml:space="preserve">
<style type="text/css">
	.st0{fill:#0A436A;}
	.st1{fill:#64C1ED;}
</style>
<defs>
</defs>
<path class="st0" d="M61.1,122.4c-33.4,0.2-62.7-28.1-61-61.9c1.8-37.1,28-60.4,61-60.6c32.9-0.2,60.2,23.7,61.4,61.6
	C123.6,94.3,95.1,122.8,61.1,122.4z M61,63.6c14.7,0,29.3,0,44,0c2.1,0,4.2,0.1,6.3,0c5.6-0.3,6-0.8,4.2-6.1c-0.5-1.5-1-3.1-1-4.7
	c-0.2-11.3-6-20-12.7-28.3C96,17.5,88.2,14,80.4,10.5c-2.5-1.1-5.2-2.5-7.8-2.5c-10.1-0.1-20.3-1.2-30.2,2.6
	C27.3,16.3,16.7,26,10.6,41.1C8.5,46.6,8.7,52,7.8,57.4c-1,6.1-1.2,6.1,5.1,6.2C28.9,63.6,45,63.6,61,63.6z"/>
<path class="st1" d="M86.1,30.1c4.8-0.1,11.2,4.8,11.1,8.6c-0.1,4.5-5.3,10.7-9.1,10.9c-4.5,0.2-9.9-5.4-10-10.5
	C77.8,33.2,80.5,30.2,86.1,30.1z"/>
</svg>
